<?xml version="1.0" encoding="UTF-8" standalone="no"?>
<!-- Created with Inkscape (http://www.inkscape.org/) -->

<svg
   xmlns:dc="http://purl.org/dc/elements/1.1/"
   xmlns:cc="http://creativecommons.org/ns#"
   xmlns:rdf="http://www.w3.org/1999/02/22-rdf-syntax-ns#"
   xmlns:svg="http://www.w3.org/2000/svg"
   xmlns="http://www.w3.org/2000/svg"
   xmlns:sodipodi="http://sodipodi.sourceforge.net/DTD/sodipodi-0.dtd"
   xmlns:inkscape="http://www.inkscape.org/namespaces/inkscape"
   width="210mm"
   height="297mm"
   viewBox="0 0 210 297"
   version="1.1"
   id="svg8"
   enable-background="new"
   inkscape:version="0.92.3 (2405546, 2018-03-11)"
   sodipodi:docname="JoelLogo.svg">
  <defs
     id="defs2">
    <inkscape:perspective
       sodipodi:type="inkscape:persp3d"
       inkscape:vp_x="301.73823 : 60.656444 : 1"
       inkscape:vp_y="187.48626 : -1451.3905 : 0"
       inkscape:vp_z="547.2326 : 196.33339 : 1"
       inkscape:persp3d-origin="415.20485 : 200.33869 : 1"
       id="perspective3776" />
    <filter
       inkscape:collect="always"
       style="color-interpolation-filters:sRGB"
       id="filter4247">
      <feBlend
         inkscape:collect="always"
         mode="overlay"
         in2="BackgroundImage"
         id="feBlend4249" />
    </filter>
  </defs>
  <sodipodi:namedview
     id="base"
     pagecolor="#ffffff"
     bordercolor="#666666"
     borderopacity="1.0"
     inkscape:pageopacity="0.0"
     inkscape:pageshadow="2"
     inkscape:zoom="0.35"
     inkscape:cx="-13.519278"
     inkscape:cy="407.04421"
     inkscape:document-units="mm"
     inkscape:current-layer="layer2"
     showgrid="false"
     inkscape:snap-text-baseline="true"
     inkscape:window-width="1366"
     inkscape:window-height="706"
     inkscape:window-x="-8"
     inkscape:window-y="-8"
     inkscape:window-maximized="1" />
  <metadata
     id="metadata5">
    <rdf:RDF>
      <cc:Work
         rdf:about="">
        <dc:format>image/svg+xml</dc:format>
        <dc:type
           rdf:resource="http://purl.org/dc/dcmitype/StillImage" />
        <dc:title></dc:title>
      </cc:Work>
    </rdf:RDF>
  </metadata>
  <g
     inkscape:groupmode="layer"
     id="layer2"
     inkscape:label="Layer 2"
     style="opacity:0.625;filter:url(#filter4247)">
    <path
       style="opacity:0;fill:#ff2a2a;stroke-width:0.26458332"
       id="path4141"
       d="m -328.45118,331.77768 c 3.29414,-1.79446 8.90921,-4.20402 -6.24972,3.60373 -0.52732,0.27157 0.94231,-0.72247 1.38427,-1.11802 1.35086,-1.20902 1.93379,-1.93347 3.16728,-3.30092 4.35131,-5.00115 8.3055,-10.32348 12.24756,-15.64722 3.60045,-4.81383 6.38969,-10.13997 8.6969,-15.67196 1.37668,-3.64326 2.79064,-7.27064 4.29903,-10.86135 1.11721,-2.45827 2.7454,-4.62775 4.12539,-6.93767 1.83652,-3.22064 2.86266,-6.81596 4.08985,-10.29502 1.66595,-4.45796 3.07303,-8.99841 4.4741,-13.5445 0.51813,-1.83523 1.11424,-3.64678 1.69751,-5.46189 0,0 9.97416,-4.68252 9.97416,-4.68252 v 0 c -0.63685,1.82867 -1.31418,3.64454 -1.84724,5.50756 -1.43142,4.52568 -2.74685,9.08559 -4.38264,13.5435 -1.22388,3.50623 -2.24755,7.11322 -3.91072,10.44109 -1.30871,2.32138 -2.86282,4.47699 -4.15489,6.8062 -1.59496,3.61677 -3.19439,7.2314 -4.54123,10.95144 -2.2765,5.65463 -5.13982,11.06348 -8.75366,15.9878 -3.89707,5.29084 -7.79097,10.58685 -11.99922,15.63714 -0.99719,1.1784 -2.98665,3.7784 -4.28885,4.60083 -4.18425,2.64266 -8.37895,5.23113 -12.79043,7.45099 0,0 8.76255,-7.00921 8.76255,-7.00921 z"
       inkscape:connector-curvature="0" />
    <path
       style="opacity:0;fill:#ff2a2a;stroke-width:0.26458332"
       id="path4143"
       d="m 66.765521,271.01308 c -0.518054,-3.43837 -0.06181,-6.75449 0.865233,-10.07192 1.461283,-3.95569 2.940235,-7.90285 4.343577,-11.88069 0.908981,-2.77184 2.073293,-5.45428 2.780884,-8.28876 0.294701,-1.55986 0.400929,-3.14766 1.033061,-4.61878 4.324572,-6.35947 9.651044,-8.65398 13.190884,-3.81567 1.141891,1.99553 1.993569,4.11652 2.530781,6.34834 0.354203,1.64101 0.404839,3.3213 0.428972,4.99317 0.0084,1.51312 -0.0045,3.02627 -0.01061,4.53938 -0.0057,1.50943 -0.0068,3.01888 -0.0075,4.52832 0,0 -9.972307,5.08066 -9.972307,5.08066 v 0 c 5.29e-4,-1.51051 7.93e-4,-3.02103 0.0055,-4.53154 0.0053,-1.50932 0.01566,-3.01862 0.01945,-4.52794 -0.0053,-1.60399 -0.01146,-3.21673 -0.286017,-4.80232 -0.428668,-2.09337 -1.162992,-4.08795 -2.286736,-5.91611 -0.406805,-0.47606 -0.863066,-1.10475 -1.543389,-1.21477 -0.157551,-0.0255 -0.613775,0.11761 -0.477551,0.0345 8.681548,-5.29926 12.696637,-6.13226 8.671972,-5.24109 -1.070745,1.15662 -0.955968,2.85269 -1.250471,4.32001 -0.680122,2.93935 -1.963769,5.66285 -2.95462,8.5031 -1.430375,3.93126 -2.711141,7.91687 -4.296828,11.79147 -0.986899,3.13619 -1.602896,6.26373 -0.865201,9.53809 0,0 -9.919057,5.23259 -9.919057,5.23259 z"
       inkscape:connector-curvature="0" />
    <path
       style="opacity:0;fill:#ff2a2a;stroke-width:0.26458332"
       id="path4145"
       d="m 74.748585,269.87232 c 1.935398,-2.11209 3.931047,-4.17435 5.829779,-6.32001 1.647571,-2.1014 3.186779,-4.28079 4.888293,-6.34034 1.567577,-1.85913 3.264432,-3.60138 5.034899,-5.26608 4.410398,-3.56845 8.233736,-7.72694 11.794314,-12.12314 4.13584,-5.47632 7.54671,-11.44792 10.6566,-17.5516 2.29254,-4.91344 4.18094,-10.00065 6.28612,-14.99569 0.84068,-2.44771 2.1623,-4.83722 2.63157,-7.40429 -0.0134,-0.0651 0.007,-0.14828 -0.0402,-0.19521 -0.13109,-0.13084 -2.33216,0.0883 -2.5459,0.12759 -2.56641,0.8545 -5.14797,1.67987 -7.64319,2.72776 -4.64829,1.65115 -9.50032,2.52934 -14.363653,3.25153 -3.066343,0.44472 -6.154192,0.70434 -9.250674,0.78128 -1.693834,0.0265 -3.387887,0.005 -5.081665,-0.0143 -2.441993,-0.0425 -4.88442,-0.028 -7.326603,-0.0167 -1.695659,-0.0965 -3.391696,-0.73348 -5.090697,-0.49391 -3.540361,2.16316 0.377031,-0.23828 8.782902,-4.90899 0.131955,-0.0733 -0.266888,0.1507 -0.370388,0.26059 -0.393485,0.41777 -0.453199,1.03732 -0.54596,1.56956 -0.232201,1.45573 -0.0567,2.88188 0.191371,4.31758 0.17775,1.32531 0.40758,2.65324 0.912426,3.89763 0.790617,1.3314 1.950956,2.40311 3.031659,3.49704 1.479,1.58917 3.120925,2.99688 4.770448,4.40201 1.393479,1.25579 2.872904,2.37317 4.471826,3.34589 1.272398,0.78287 2.773257,0.7589 4.172948,1.11039 0.994447,0.22689 0.497054,0.12323 1.492094,0.3114 0,0 -9.181325,6.3969 -9.181325,6.3969 v 0 c -1.005935,-0.21299 -0.505317,-0.10541 -1.501873,-0.32268 -1.531768,-0.26887 -3.056469,-0.5551 -4.381314,-1.43131 -1.622746,-1.01638 -3.04786,-2.286 -4.500227,-3.52867 -1.675479,-1.42517 -3.336666,-2.86073 -4.850902,-4.46071 -1.193811,-1.19217 -2.469068,-2.36095 -3.315304,-3.83767 -0.550116,-1.31315 -0.834739,-2.71936 -1.000458,-4.12963 -0.268555,-1.5305 -0.549336,-3.03825 -0.359175,-4.60132 0.40666,-5.32399 4.265322,-8.19407 11.228189,-8.50004 1.691214,0.12302 3.351409,0.50619 5.048385,0.56454 2.449097,0.0145 4.898295,0.0324 7.347395,0.007 1.685742,-0.004 3.371527,0.0149 5.057169,-0.008 2.986476,-0.0725 5.968046,-0.29092 8.927156,-0.71178 4.8774,-0.73772 9.72861,-1.73891 14.3344,-3.55328 2.59547,-1.0098 5.23993,-2.05151 7.97841,-2.57675 1.50544,-0.0197 3.17718,0.014 3.65437,1.73701 -0.0603,1.04206 -0.43435,1.76676 -0.80264,2.74085 -0.64652,1.70995 -1.19186,3.46161 -2.00012,5.10893 -2.19102,5.01534 -4.12851,10.13552 -6.38931,15.11988 -3.1267,6.16085 -6.57895,12.1637 -10.62419,17.7742 -3.43354,4.37502 -7.06441,8.60596 -11.3944,12.13243 -1.764891,1.61135 -3.421982,3.33613 -5.018748,5.11432 -1.76018,2.03 -3.381933,4.16686 -4.929653,6.36309 -1.808147,2.19387 -3.925861,4.10269 -5.676215,6.35057 0,0 -10.337929,4.28212 -10.337929,4.28212 z"
       inkscape:connector-curvature="0" />
    <path
       style="opacity:0;fill:#ff2a2a;stroke-width:0.26458332"
       id="path4147"
       d="m 108.76403,207.77378 c 1.63628,3.23577 3.30599,6.45138 5.05766,9.62628 1.33588,2.48746 3.08174,4.70613 4.75304,6.96884 1.37358,1.54891 2.44302,3.27745 3.43368,5.08429 0.80039,1.61264 1.87125,3.00188 3.08527,4.31741 0.80811,0.82077 1.63396,1.60243 2.25154,2.57916 0,0 -9.71659,5.62005 -9.71659,5.62005 v 0 c -0.504,-0.95425 -1.35204,-1.62238 -2.07714,-2.40574 -1.27368,-1.38629 -2.3608,-2.87072 -3.20677,-4.56047 -0.96615,-1.76556 -2.03043,-3.43881 -3.34464,-4.9729 -1.65877,-2.32586 -3.36473,-4.62763 -4.6877,-7.16976 -1.71034,-3.1552 -3.29587,-6.38741 -5.222057,-9.41867 0,0 9.673707,-5.66849 9.673707,-5.66849 z"
       inkscape:connector-curvature="0" />
    <path
       style="opacity:0;fill:#ff2a2a;stroke-width:0.26458332"
       id="path4149"
       d="m 77.669714,205.63192 c 0.698233,1.93623 1.493446,3.83637 2.271295,5.74193 0.721799,1.60285 1.093896,3.303 1.287822,5.04023 0.121005,1.89051 0.430853,3.76085 0.629857,5.64374 0.16429,1.63587 0.139432,3.27649 0.404392,4.90065 0.345738,1.55369 1.051231,2.98264 1.710271,4.41959 0.615958,1.33349 1.298732,2.61472 2.282907,3.71084 0.159825,0.12597 0.319651,0.25194 0.479476,0.37792 0,0 -9.508816,5.92868 -9.508816,5.92868 v 0 c -0.187269,-0.17118 -0.374538,-0.34237 -0.561805,-0.51355 -1.033172,-1.19705 -1.749544,-2.58414 -2.424822,-4.00773 -0.693174,-1.52679 -1.444916,-3.03346 -1.85688,-4.66907 -0.295738,-1.65529 -0.329991,-3.30873 -0.41465,-4.98681 -0.166997,-1.88417 -0.486695,-3.74841 -0.658992,-5.62814 -0.135763,-1.6428 -0.425387,-3.25768 -1.094851,-4.77772 -0.780688,-1.92664 -1.50409,-3.87665 -2.380078,-5.76407 0,0 9.834874,-5.41649 9.834874,-5.41649 z"
       inkscape:connector-curvature="0" />
    <g
       inkscape:corner7="-1.7035423 : 0.081226418 : 0.08352192 : 1"
       inkscape:corner0="-2.2307315 : 0.15033526 : 0 : 1"
       inkscape:perspectiveID="#perspective3776"
       style="fill:#008080;stroke-width:1.06488609"
       id="g4100"
       sodipodi:type="inkscape:box3d">
      <path
         points="197.16997,254.04928 171.68386,265.21622 160.38954,177.78327 186.64212,172.54985 "
         d="m 186.64212,172.54985 10.52785,81.49943 -25.48611,11.16694 -11.29432,-87.43295 z"
         inkscape:box3dsidetype="6"
         style="fill:#353564;fill-rule:evenodd;stroke:none;stroke-width:0.88560855;stroke-linejoin:round"
         id="path4102"
         sodipodi:type="inkscape:box3dside" />
      <path
         points="40.203962,127.99079 61.101595,289.76598 171.68386,265.21622 160.38954,177.78327 "
         d="M 160.38954,177.78327 40.203962,127.99079 61.101595,289.76598 171.68386,265.21622 Z"
         inkscape:box3dsidetype="11"
         style="fill:#e9e9ff;fill-rule:evenodd;stroke:none;stroke-width:0.88560855;stroke-linejoin:round"
         id="path4112"
         sodipodi:type="inkscape:box3dside" />
      <path
         points="100.39651,124.74697 40.203962,127.99079 160.38954,177.78327 186.64212,172.54985 "
         d="m 186.64212,172.54985 -86.24561,-47.80288 -60.192548,3.24382 120.185578,49.79248 z"
         inkscape:box3dsidetype="5"
         style="fill:#4d4d9f;fill-rule:evenodd;stroke:none;stroke-width:0.88560855;stroke-linejoin:round"
         id="path4104"
         sodipodi:type="inkscape:box3dside" />
      <path
         points="118.81326,267.31681 61.101595,289.76598 40.203962,127.99079 100.39651,124.74697 "
         d="M 100.39651,124.74697 118.81326,267.31681 61.101595,289.76598 40.203962,127.99079 Z"
         inkscape:box3dsidetype="14"
         style="fill:#d7d7ff;fill-rule:evenodd;stroke:none;stroke-width:0.88560855;stroke-linejoin:round"
         id="path4108"
         sodipodi:type="inkscape:box3dside" />
      <path
         points="100.39651,124.74697 118.81326,267.31681 197.16997,254.04928 186.64212,172.54985 "
         d="m 186.64212,172.54985 -86.24561,-47.80288 18.41675,142.56984 78.35671,-13.26753 z"
         inkscape:box3dsidetype="3"
         style="fill:#8686bf;fill-rule:evenodd;stroke:none;stroke-width:0.88560855;stroke-linejoin:round"
         id="path4106"
         sodipodi:type="inkscape:box3dside" />
    </g>
  </g>
  <g
     inkscape:label="Layer 1"
     inkscape:groupmode="layer"
     id="layer1"
     style="">
    <g
       aria-label="J.v "
       transform="matrix(1.3602233,0,0,2.5761805,-435.5285,-1375.8633)"
       style="font-style:normal;font-variant:normal;font-weight:normal;font-stretch:normal;font-size:42.66666794px;line-height:10.25;font-family:Algerian;-inkscape-font-specification:Algerian;text-align:center;letter-spacing:0px;word-spacing:0px;text-anchor:middle;fill:#000000;fill-opacity:1;stroke:none;stroke-width:0.14134134"
       id="flowRoot3721">
      <path
         d="m 385.73081,588.61986 -2.8125,2.8125 v 15.47917 0.66667 q 0,1.5625 1.04166,2.125 -0.25,2.72916 -2.64583,4.45833 -2.39583,1.70833 -5.95833,1.70833 -6.56251,0 -8.43751,-5.14583 l -0.29166,-0.79167 q -0.20834,-0.60416 -0.52084,-0.8125 -0.29166,-0.22916 -1.14583,-0.375 l 6.22917,-4.64583 q -0.33334,2.04167 -0.33334,4.125 0,2.8125 1.10417,4.5 1.125,1.66667 3.02084,1.66667 3.77083,0 3.77083,-5.97917 v -17.22917 l -2.83333,-2.5625 z m 0.85416,1.16667 -2.04166,2.08333 v 15.22917 0.8125 l 0.29166,1.27083 q 0.27084,0.54167 1.14584,1.10417 -0.29167,1.77083 -1.79167,3.625 -3.02083,3.77083 -8.47917,3.77083 -4.16666,0 -6.66667,-2.39583 v -0.16667 q 1.5625,1.1875 2.93751,1.64584 1.375,0.4375 3.41666,0.4375 3.625,0 6.45834,-1.91667 2.85416,-1.9375 3.5,-4.8125 -0.95834,-0.77083 -1.16667,-1.3125 -0.20833,-0.54167 -0.20833,-2.1875 V 591.6407 l 2.29166,-2.29167 z m -13.45833,14.79167 -0.0417,0.27083 q -0.39583,2.35417 -0.39583,3.41667 0,4.04166 3.02083,5.5 h -0.3125 q -3.27083,-0.95834 -3.27083,-5.14584 0,-2.125 0.45833,-4.04166 z"
         style="stroke-width:0.14134134"
         id="path3769"
         inkscape:connector-curvature="0" />
      <path
         d="m 396.2267,611.75977 q 1.125,0 1.91666,0.79166 0.79167,0.79167 0.79167,1.91667 0,1.10417 -0.79167,1.89583 -0.79166,0.79167 -1.91666,0.79167 -1.10417,0 -1.89584,-0.79167 -0.79166,-0.79166 -0.79166,-1.89583 0,-1.125 0.79166,-1.91667 0.79167,-0.79166 1.89584,-0.79166 z m 3.41666,0.875 q 1.14584,1.0625 1.14584,2.66666 0,1.41667 -1.0625,2.47917 -1.04167,1.0625 -2.4375,1.0625 -1.6875,0 -2.72917,-1.25 l 0.14583,-0.14583 q 1.33334,0.79166 2.41667,0.79166 1.3125,0 2.22917,-0.89583 0.9375,-0.91667 0.9375,-2.16667 0,-1.1875 -0.83334,-2.39583 z"
         style="stroke-width:0.14134134"
         id="path3771"
         inkscape:connector-curvature="0" />
      <path
         d="m 437.10914,598.97156 0.22917,0.22917 q -2.72917,2.625 -4.45834,5.625 -1.72916,3 -4.14583,9.375 l -6.08333,15.91666 2.47916,2.16667 h -9.60416 l 2.75,-2.27083 -7.625,-21.70834 -3.20834,-2.75 h 10.33334 l -2.9375,2.9375 6.875,19.5625 0.8125,-1.9375 -6.14584,-17.33333 2.125,-2.10417 0.375,0.39584 -1.85416,1.83333 5.77083,16.47917 4.41667,-11.79167 q 1.97916,-5.25 1.97916,-7.35417 0,-2.125 -1.5625,-3.64583 l 0.39584,-0.0833 q 6.0625,-1.16667 9.08333,-3.54167 z m 1.125,1.27083 0.1875,0.47917 q -3.97917,3.10417 -8.20833,14.16667 l -5.875,15.3125 3.25,3.79166 h -10.75 l -0.45834,-0.5625 h 9.97917 l -2.625,-3.08333 5.97917,-15.60417 1.125,-2.95833 q 1.5,-3.83333 3.54166,-7 2.04167,-3.1875 3.85417,-4.54167 z"
         style="stroke-width:0.14134134"
         id="path3773"
         inkscape:connector-curvature="0" />
    </g>
    <flowRoot
       xml:space="preserve"
       id="flowRoot3729"
       style="fill:black;fill-opacity:1;stroke:none;font-family:sans-serif;font-style:normal;font-weight:normal;font-size:40px;line-height:1.25;letter-spacing:0px;word-spacing:0px"><flowRegion
         id="flowRegion3731"><rect
           id="rect3733"
           width="60"
           height="151.42857"
           x="334.28571"
           y="516.80542" /></flowRegion><flowPara
         id="flowPara3735"></flowPara></flowRoot>    <flowRoot
       xml:space="preserve"
       id="flowRoot3737"
       style="fill:black;fill-opacity:1;stroke:none;font-family:sans-serif;font-style:normal;font-weight:normal;font-size:40px;line-height:1.25;letter-spacing:0px;word-spacing:0px"><flowRegion
         id="flowRegion3739"><rect
           id="rect3741"
           width="520"
           height="157.14285"
           x="940"
           y="831.09113" /></flowRegion><flowPara
         id="flowPara3743"></flowPara></flowRoot>    <flowRoot
       xml:space="preserve"
       id="flowRoot3745"
       style="fill:black;fill-opacity:1;stroke:none;font-family:sans-serif;font-style:normal;font-weight:normal;font-size:40px;line-height:1.25;letter-spacing:0px;word-spacing:0px"><flowRegion
         id="flowRegion3747"><rect
           id="rect3749"
           width="234.28572"
           height="45.714287"
           x="431.42856"
           y="545.37683" /></flowRegion><flowPara
         id="flowPara3751"></flowPara></flowRoot>    <flowRoot
       xml:space="preserve"
       id="flowRoot3753"
       style="fill:black;fill-opacity:1;stroke:none;font-family:sans-serif;font-style:normal;font-weight:normal;font-size:40px;line-height:1.25;letter-spacing:0px;word-spacing:0px"><flowRegion
         id="flowRegion3755"><rect
           id="rect3757"
           width="128.57143"
           height="42.857143"
           x="568.57141"
           y="671.09113" /></flowRegion><flowPara
         id="flowPara3759"></flowPara></flowRoot>    <flowRoot
       xml:space="preserve"
       id="flowRoot3761"
       style="fill:black;fill-opacity:1;stroke:none;font-family:sans-serif;font-style:normal;font-weight:normal;font-size:40px;line-height:1.25;letter-spacing:0px;word-spacing:0px"><flowRegion
         id="flowRegion3763"><rect
           id="rect3765"
           width="197.14285"
           height="94.285713"
           x="185.71428"
           y="956.80542" /></flowRegion><flowPara
         id="flowPara3767"></flowPara></flowRoot>  </g>
</svg>
